<!-- <svg xmlns="http://www.w3.org/2000/svg" width="1em" height="1em" viewBox="0 0 32 32"><path fill="#00a0f0" d="M28.707 19.293L26 16.586V13a10.014 10.014 0 0 0-9-9.95V1h-2v2.05A10.014 10.014 0 0 0 6 13v3.586l-2.707 2.707A1 1 0 0 0 3 20v3a1 1 0 0 0 1 1h7v.777a5.15 5.15 0 0 0 4.5 5.199A5.006 5.006 0 0 0 21 25v-1h7a1 1 0 0 0 1-1v-3a1 1 0 0 0-.293-.707M19 25a3 3 0 0 1-6 0v-1h6Zm8-3H5v-1.586l2.707-2.707A1 1 0 0 0 8 17v-4a8 8 0 0 1 16 0v4a1 1 0 0 0 .293.707L27 20.414Z"/></svg> -->

<svg xmlns="http://www.w3.org/2000/svg" width="12" height="12" viewBox="0 0 24 24"><path fill="none" stroke="currentColor" stroke-linecap="round" stroke-linejoin="round" stroke-width="1.5" d="M18 8.4c0-1.697-.632-3.325-1.757-4.525S13.59 2 12 2s-3.117.674-4.243 1.875C6.632 5.075 6 6.703 6 8.4C6 15.867 3 18 3 18h18s-3-2.133-3-9.6M13.73 21a2 2 0 0 1-3.46 0"/></svg>