<!-- <svg xmlns="http://www.w3.org/2000/svg" width="1em" height="1em" viewBox="0 0 24 24"><g fill="none" stroke="currentColor" stroke-width="1.5"><path stroke-linejoin="round" d="M4 18a4 4 0 0 1 4-4h8a4 4 0 0 1 4 4a2 2 0 0 1-2 2H6a2 2 0 0 1-2-2Z"/><circle cx="12" cy="7" r="3"/></g></svg> -->



<svg xmlns="http://www.w3.org/2000/svg" width="12" height="12" viewBox="0 0 24 24"><path fill="none" stroke="currentColor" stroke-linecap="round" stroke-linejoin="round" stroke-width="1.5" d="M5 20v-1a7 7 0 0 1 7-7v0a7 7 0 0 1 7 7v1m-7-8a4 4 0 1 0 0-8a4 4 0 0 0 0 8"/></svg>