<!-- <svg xmlns="http://www.w3.org/2000/svg" width="24" height="24" viewBox="0 0 24 24"><path fill="none" stroke="currentColor" stroke-linecap="round" stroke-linejoin="round" stroke-width="2" d="M3 7V5a2 2 0 0 1 2-2h2m10 0h2a2 2 0 0 1 2 2v2m0 10v2a2 2 0 0 1-2 2h-2M7 21H5a2 2 0 0 1-2-2v-2"/></svg> -->

<!-- <svg xmlns="http://www.w3.org/2000/svg" width="10" height="10" viewBox="0 0 20 20"><path fill="currentColor" d="M4.5 3.5a1 1 0 0 0-1 1v2.25a.75.75 0 0 1-1.5 0V4.5A2.5 2.5 0 0 1 4.5 2h2.25a.75.75 0 0 1 0 1.5zm0 13a1 1 0 0 1-1-1v-2.25a.75.75 0 0 0-1.5 0v2.25A2.5 2.5 0 0 0 4.5 18h2.25a.75.75 0 0 0 0-1.5zm12-12a1 1 0 0 0-1-1h-2.25a.75.75 0 0 1 0-1.5h2.25A2.5 2.5 0 0 1 18 4.5v2.25a.75.75 0 0 1-1.5 0zm-1 12a1 1 0 0 0 1-1v-2.25a.75.75 0 0 1 1.5 0v2.25a2.5 2.5 0 0 1-2.5 2.5h-2.25a.75.75 0 0 1 0-1.5zM6 10a.75.75 0 0 1 .75-.75h6.5a.75.75 0 0 1 0 1.5h-6.5A.75.75 0 0 1 6 10"/></svg> -->

<!-- <svg xmlns="http://www.w3.org/2000/svg" width="12" height="12" viewBox="0 0 24 24"><path fill="currentColor" d="M5.25 3.5A1.75 1.75 0 0 0 3.5 5.25v3a.75.75 0 0 1-1.5 0v-3A3.25 3.25 0 0 1 5.25 2h3a.75.75 0 0 1 0 1.5zm0 17a1.75 1.75 0 0 1-1.75-1.75v-3a.75.75 0 0 0-1.5 0v3A3.25 3.25 0 0 0 5.25 22h3a.75.75 0 0 0 0-1.5zM20.5 5.25a1.75 1.75 0 0 0-1.75-1.75h-3a.75.75 0 0 1 0-1.5h3A3.25 3.25 0 0 1 22 5.25v3a.75.75 0 0 1-1.5 0zM18.75 20.5a1.75 1.75 0 0 0 1.75-1.75v-3a.75.75 0 0 1 1.5 0v3A3.25 3.25 0 0 1 18.75 22h-3a.75.75 0 0 1 0-1.5zm-12-8.5a.75.75 0 0 1 .75-.75h9a.75.75 0 0 1 0 1.5h-9a.75.75 0 0 1-.75-.75"/></svg> -->

<svg xmlns="http://www.w3.org/2000/svg" width="12" height="12" viewBox="0 0 24 24"><path fill="none" stroke="currentColor" stroke-linecap="round" stroke-linejoin="round" stroke-width="1.5" d="M9 6.6v1.8a.6.6 0 0 1-.6.6H6.6a.6.6 0 0 1-.6-.6V6.6a.6.6 0 0 1 .6-.6h1.8a.6.6 0 0 1 .6.6M6 12h3m6 0v3m-3 3h3m-3-5.989l.01-.011m5.99.011l.01-.011M12 15.011l.01-.011m5.99.011l.01-.011M18 18.011l.01-.011M12 9.011L12.01 9M12 6.011L12.01 6M9 15.6v1.8a.6.6 0 0 1-.6.6H6.6a.6.6 0 0 1-.6-.6v-1.8a.6.6 0 0 1 .6-.6h1.8a.6.6 0 0 1 .6.6m9-9v1.8a.6.6 0 0 1-.6.6h-1.8a.6.6 0 0 1-.6-.6V6.6a.6.6 0 0 1 .6-.6h1.8a.6.6 0 0 1 .6.6M18 3h3v3m-3 15h3v-3M6 3H3v3m3 15H3v-3"/></svg>